<svg xmlns="http://www.w3.org/2000/svg" xmlns:xlink="http://www.w3.org/1999/xlink" width="47.777" height="44.001" viewBox="0 0 47.777 44.001">
  <defs>
    <clipPath id="clip-path">
      <path id="Charging_icon_2" data-name="Charging icon 2" d="M3.771,24.063,1.945,25.889,0,23.945l5.612-5.612,1.472,1.473,4.25,4.249L9.389,26,7.462,24.073a16.505,16.505,0,0,0,31.394,4.762l3.336,1.521A20.171,20.171,0,0,1,3.771,24.063ZM23.13,22H16.5L27.865,11l-3.381,7.209h6.683L19.675,29.334Zm13.426-3.666L38.5,16.389l1.7,1.7A16.5,16.5,0,0,0,8.616,13.774L5.237,12.352a20.171,20.171,0,0,1,38.679,5.955l1.918-1.917,1.944,1.944-5.61,5.612Z" transform="translate(0 0)" fill="#70f"/>
    </clipPath>
  </defs>
  <g id="icon-charge" transform="translate(1.833)">
    <rect id="icon_icoRecharge_background" data-name="icon/icoRecharge background" width="44" height="44" fill="none"/>
    <g id="Group_2" data-name="Group 2" transform="translate(-1.833 1.833)">
      <path id="Charging_icon_2-2" data-name="Charging icon 2" d="M3.771,24.063,1.945,25.889,0,23.945l5.612-5.612,1.472,1.473,4.25,4.249L9.389,26,7.462,24.073a16.505,16.505,0,0,0,31.394,4.762l3.336,1.521A20.171,20.171,0,0,1,3.771,24.063ZM23.13,22H16.5L27.865,11l-3.381,7.209h6.683L19.675,29.334Zm13.426-3.666L38.5,16.389l1.7,1.7A16.5,16.5,0,0,0,8.616,13.774L5.237,12.352a20.171,20.171,0,0,1,38.679,5.955l1.918-1.917,1.944,1.944-5.61,5.612Z" transform="translate(0 0)" fill="#70f"/>
    </g>
  </g>
</svg>
