<svg id="icon-map" xmlns="http://www.w3.org/2000/svg" xmlns:xlink="http://www.w3.org/1999/xlink" width="44.001" height="44.002" viewBox="0 0 44.001 44.002">
  <defs>
    <clipPath id="clip-path">
      <path id="Mask" d="M9.166,44,5.5,44A5.507,5.507,0,0,1,0,38.5V5.5A5.505,5.505,0,0,1,5.5,0h33A5.507,5.507,0,0,1,44,5.5v33A5.508,5.508,0,0,1,38.5,44h-22V40.333h22A1.834,1.834,0,0,0,40.333,38.5V23.833H36.666V20.166h3.666V5.5A1.834,1.834,0,0,0,38.5,3.666H23.833v16.5h5.5v3.666h-5.5V33H20.166V3.666H5.5A1.834,1.834,0,0,0,3.666,5.5v33A1.834,1.834,0,0,0,5.5,40.333H9.167V44Z" fill="#fff"/>
    </clipPath>
  </defs>
  <rect id="icon_rooms_icoMap_background" data-name="icon/rooms/icoMap background" width="44" height="44" fill="none"/>
  <g id="color_purple" data-name="color/purple">
    <path id="Mask-2" data-name="Mask" d="M9.166,44,5.5,44A5.507,5.507,0,0,1,0,38.5V5.5A5.505,5.505,0,0,1,5.5,0h33A5.507,5.507,0,0,1,44,5.5v33A5.508,5.508,0,0,1,38.5,44h-22V40.333h22A1.834,1.834,0,0,0,40.333,38.5V23.833H36.666V20.166h3.666V5.5A1.834,1.834,0,0,0,38.5,3.666H23.833v16.5h5.5v3.666h-5.5V33H20.166V3.666H5.5A1.834,1.834,0,0,0,3.666,5.5v33A1.834,1.834,0,0,0,5.5,40.333H9.167V44Z" fill="#70f"/>
  </g>
</svg>
