<svg id="icon-QRCode" xmlns="http://www.w3.org/2000/svg" xmlns:xlink="http://www.w3.org/1999/xlink" width="44.001" height="44.001" viewBox="0 0 44.001 44.001">
  <defs>
    <clipPath id="clip-path">
      <path id="Shape" d="M44,44H0V0H44V44ZM3.666,3.666V40.333H40.333V3.666Zm16.5,33H7.333V23.833H20.166V36.666ZM11,27.5V33h5.5V27.5ZM33,33H27.5V27.5H33V33Zm3.666-12.834H23.833V7.333H36.666V20.166Zm-16.5,0H7.333V7.333H20.166V20.166ZM11,11v5.5h5.5V11Z" fill="#fff"/>
    </clipPath>
  </defs>
  <rect id="icon_icoQRCode_background" data-name="icon/icoQRCode background" width="44" height="44" fill="none"/>
  <g id="Group_1" data-name="Group 1" transform="translate(0 0)">
    <path id="Shape-2" data-name="Shape" d="M44,44H0V0H44V44ZM3.666,3.666V40.333H40.333V3.666Zm16.5,33H7.333V23.833H20.166V36.666ZM11,27.5V33h5.5V27.5ZM33,33H27.5V27.5H33V33Zm3.666-12.834H23.833V7.333H36.666V20.166Zm-16.5,0H7.333V7.333H20.166V20.166ZM11,11v5.5h5.5V11Z" fill="#70f"/>
  </g>
</svg>
