<svg id="icon-pass" xmlns="http://www.w3.org/2000/svg" width="31.501" height="36.191" viewBox="0 0 31.501 36.191">
  <path id="Path_5" data-name="Path 5" d="M20.262,30.936l-.012-.369V5.625a1.125,1.125,0,0,0-2.232-.2l-.018.2V30.567a5.625,5.625,0,0,1-11.239.369l-.012-.369V5.625a1.125,1.125,0,0,0-2.232-.2l-.018.2V33.941A2.25,2.25,0,0,1,.014,34.2L0,33.941V5.625a5.625,5.625,0,0,1,11.239-.371l.012.371V30.567a1.125,1.125,0,0,0,2.232.2l.018-.2V5.625a5.624,5.624,0,0,1,11.237-.371l.012.371V30.567a1.125,1.125,0,0,0,2.232.2l.018-.2V2.25a2.25,2.25,0,0,1,4.485-.261l.016.261V30.567a5.625,5.625,0,0,1-11.239.369Z" fill="#70f"/>
</svg>
