<svg xmlns="http://www.w3.org/2000/svg" width="33" height="36.666" viewBox="0 0 33 36.666">
  <path id="icon-trash" d="M5.5,36.666a1.834,1.834,0,0,1-1.833-1.833V9.167A1.836,1.836,0,0,1,5.5,7.332h22a1.837,1.837,0,0,1,1.833,1.835V34.833A1.835,1.835,0,0,1,27.5,36.666ZM7.332,33H25.667V11H7.332Zm11.5-3.667a.5.5,0,0,1-.5-.5V15.167a.5.5,0,0,1,.5-.5H21.5a.5.5,0,0,1,.5.5V28.833a.5.5,0,0,1-.5.5Zm-7.333,0a.5.5,0,0,1-.5-.5V15.167a.5.5,0,0,1,.5-.5h2.667a.5.5,0,0,1,.5.5V28.833a.5.5,0,0,1-.5.5ZM.5,3.667a.5.5,0,0,1-.5-.5V.5A.5.5,0,0,1,.5,0h32a.5.5,0,0,1,.5.5V3.167a.5.5,0,0,1-.5.5Z" fill="#70f"/>
</svg>
