<svg id="icon-room" xmlns="http://www.w3.org/2000/svg" width="44.001" height="44.001" viewBox="0 0 44.001 44.001">
  <rect id="icon_rooms_icoRooms2_background" data-name="icon/rooms/icoRooms2 background" width="44" height="44" fill="none"/>
  <path id="Rectangle" d="M38.5,44a5.507,5.507,0,0,1-5.186-3.668H10.687a5.5,5.5,0,1,1-7.021-7.019V10.687a5.5,5.5,0,1,1,7.021-7.021H33.314a5.5,5.5,0,1,1,7.019,7.021V33.314A5.5,5.5,0,0,1,38.5,44Zm0-7.334A1.833,1.833,0,1,0,40.333,38.5,1.835,1.835,0,0,0,38.5,36.666Zm-33,0A1.833,1.833,0,1,0,7.333,38.5,1.835,1.835,0,0,0,5.5,36.666ZM10.687,7.333a5.556,5.556,0,0,1-3.354,3.354V33.314a5.55,5.55,0,0,1,3.354,3.353H33.314a5.542,5.542,0,0,1,3.353-3.353V10.687a5.55,5.55,0,0,1-3.353-3.354H10.687ZM38.5,3.666A1.833,1.833,0,1,0,40.333,5.5,1.835,1.835,0,0,0,38.5,3.666Zm-33,0A1.833,1.833,0,1,0,7.333,5.5,1.835,1.835,0,0,0,5.5,3.666Z" transform="translate(0 0)" fill="#70f"/>
</svg>
