<svg xmlns="http://www.w3.org/2000/svg" width="48" height="48" viewBox="0 0 48 48">
  <g id="icon-clock-02" transform="translate(-241 -1.132)">
    <g id="Oval" transform="translate(241 1.132)" fill="none" stroke="#767676" stroke-miterlimit="10" stroke-width="2">
      <circle cx="24" cy="24" r="24" stroke="none"/>
      <circle cx="24" cy="24" r="23" fill="none"/>
    </g>
    <ellipse id="Oval-2" data-name="Oval" cx="1.714" cy="1.69" rx="1.714" ry="1.69" transform="translate(263.286 23.104)" fill="#191919"/>
    <g id="Rectangle" transform="matrix(0.978, 0.208, -0.208, 0.978, 264.182, 24.788)" fill="#d8d8d8" stroke-miterlimit="10">
      <path d="M 0.5014679431915283 16.41473388671875 L 0.5477774143218994 0.5034974217414856 L 1.261000514030457 0.5014450550079346 L 1.214691042900085 16.41268539428711 L 0.5014679431915283 16.41473388671875 Z" stroke="none"/>
      <path d="M 1.762464284896851 -1.9073486328125e-06 L 1.713244199752808 16.91124725341797 L 4.172325134277344e-06 16.91617774963379 L 0.04922425746917725 0.004917144775390625 L 1.762464284896851 -1.9073486328125e-06 Z" stroke="none" fill="#191919"/>
    </g>
    <g id="Rectangle-2" data-name="Rectangle" transform="translate(275.838 25.581) rotate(98)" fill="#d8d8d8" stroke-miterlimit="10">
      <path d="M 1.211259007453918 10.6421537399292 L 0.5207166075706482 10.640793800354 L 0.5009737014770508 0.5009915232658386 L 1.191516041755676 0.5023517608642578 L 1.211259007453918 10.6421537399292 Z" stroke="none"/>
      <path d="M -3.695487976074219e-06 2.86102294921875e-06 L 1.69054639339447 0.003333091735839844 L 1.712236404418945 11.14314270019531 L 0.02168631553649902 11.13981246948242 L -3.695487976074219e-06 2.86102294921875e-06 Z" stroke="none" fill="#191919"/>
    </g>
  </g>
</svg>
