<svg id="icon-dribble" viewBox="0 0 32 32">
  <path d="M15.944 31.998c-0.017 0-0.036 0-0.056 0-8.837 0-16-7.163-16-16s7.163-16 16-16c8.837 0 16 7.163 16 16 0 0.001 0 0.001 0 0.002v-0c0 0.002 0 0.005 0 0.008 0 8.815-7.133 15.964-15.942 15.99h-0.003zM18.145 17.858c-0.547 0.105-1.031 0.258-1.489 0.459l0.045-0.017c-3.85 1.698-6.929 4.56-8.855 8.135l-0.048 0.097c2.216 1.751 5.049 2.808 8.13 2.808 1.697 0 3.318-0.321 4.808-0.905l-0.089 0.031c-0.301-2.492-0.733-4.7-1.307-6.85l0.078 0.341c-0.372-1.417-0.799-2.797-1.271-4.099zM24.911 17.331c-1.435 0-2.777 0.051-3.978 0.15 0.383 1.127 0.695 2.162 0.957 3.159 0.504 1.832 0.938 4.063 1.214 6.343l0.023 0.232c3.296-2.143 5.561-5.634 6.015-9.673l0.006-0.060c-1.323-0.102-2.787-0.156-4.235-0.156zM2.682 15.365c-0.016 0.217-0.024 0.424-0.024 0.638 0.004 3.378 1.262 6.462 3.334 8.811l-0.013-0.015c2.274-3.996 5.778-7.069 9.99-8.744l0.134-0.047c0.328-0.133 0.724-0.256 1.132-0.349l0.054-0.010c-0.273-0.668-0.574-1.35-0.896-2.025-3.409 1.101-7.333 1.751-11.404 1.784l-0.016 0h-0.399c-0.598 0.002-1.217-0.013-1.893-0.043zM26.067 7.376c-1.801 2.337-4.18 4.145-6.925 5.224l-0.11 0.038c0.343 0.733 0.681 1.531 1.097 2.583 1.47-0.137 3.241-0.209 5.123-0.209 1.306 0 2.671 0.035 3.945 0.102-0.198-2.976-1.348-5.65-3.145-7.756l0.015 0.018zM9.932 4.125c-3.381 1.752-5.877 4.815-6.836 8.498l-0.020 0.093c0.708 0.045 1.379 0.067 2.052 0.067 0.054 0 0.119 0 0.183 0 3.537 0 6.952-0.525 10.171-1.5l-0.248 0.065c-1.498-2.759-3.26-5.134-5.307-7.229l0.006 0.006zM15.944 2.667c-1.165 0.005-2.291 0.159-3.364 0.445l0.092-0.021c2.006 2.104 3.741 4.495 5.13 7.098l0.085 0.174c2.603-1.032 4.796-2.614 6.519-4.612l0.018-0.021c-2.281-1.906-5.246-3.063-8.48-3.063-0 0-0.001 0-0.001 0h0z"></path>
</svg>
