<svg id="icon-instagram" viewBox="0 0 32 32">
  <path d="M15.944 31.998c-4.291 0-4.86-0.018-6.574-0.096-5.802-0.266-9.008-3.485-9.275-9.305-0.077-1.711-0.096-2.283-0.096-6.598s0.019-4.888 0.097-6.593c0.266-5.826 3.473-9.044 9.275-9.31 1.708-0.078 2.267-0.097 6.572-0.097s4.873 0.019 6.577 0.097c5.804 0.266 9.012 3.485 9.273 9.307 0.077 1.719 0.094 2.288 0.094 6.595s-0.019 4.884-0.096 6.598c-0.263 5.82-3.469 9.037-9.273 9.307-1.716 0.078-2.283 0.096-6.575 0.096zM15.944 2.884c-4.262 0-4.766 0.016-6.443 0.092-4.319 0.196-6.335 2.219-6.536 6.558-0.077 1.709-0.096 2.219-0.096 6.465 0 4.286 0.016 4.783 0.092 6.465 0.199 4.34 2.215 6.362 6.537 6.559 1.671 0.077 2.173 0.094 6.443 0.094s4.774-0.016 6.445-0.094c4.321-0.198 6.336-2.219 6.537-6.558 0.077-1.681 0.092-2.186 0.092-6.465 0-4.314-0.016-4.815-0.092-6.465-0.198-4.338-2.213-6.36-6.537-6.558-1.669-0.078-2.172-0.094-6.443-0.094zM15.944 24.218c-0.009 0-0.019 0-0.029 0-4.538 0-8.216-3.678-8.216-8.216s3.678-8.216 8.216-8.216c4.537 0 8.215 3.678 8.216 8.214v0c0 0.002 0 0.004 0 0.006 0 4.527-3.663 8.198-8.186 8.211h-0.001zM15.944 10.665c-0.005-0-0.011-0-0.018-0-2.946 0-5.333 2.388-5.333 5.333s2.388 5.333 5.333 5.333c2.945 0 5.333-2.388 5.333-5.333v0c0-0 0-0.001 0-0.002 0-2.939-2.378-5.322-5.315-5.33h-0.001zM24.457 9.378c-1.057 0-1.913-0.857-1.913-1.913s0.857-1.913 1.913-1.913c1.057 0 1.913 0.857 1.913 1.913v0c0 0 0 0.001 0 0.002 0 1.057-0.857 1.913-1.913 1.913 0 0 0 0 0 0v0z"></path>
</svg>
