<svg id="icon-medium" viewBox="0 0 39 32">
  <path d="M38.785 32v-0.675l-3.029-3.085c-0.265-0.208-0.402-0.559-0.345-0.9v-22.678c-0.056-0.342 0.080-0.692 0.345-0.901l3.101-3.085v-0.675h-10.741l-7.656 19.819-8.708-19.819h-11.263v0.675l3.623 4.536c0.353 0.333 0.538 0.825 0.49 1.317v17.826c0.112 0.642-0.088 1.301-0.522 1.768l-4.081 5.144v0.667h11.568v-0.675l-4.081-5.136c-0.442-0.467-0.651-1.117-0.562-1.768v-15.416l10.154 23.004h1.181l8.732-23.004v18.326c0 0.484 0 0.584-0.305 0.9l-3.141 3.16v0.675h15.239z"></path>
</svg>