<svg id="Global_Craft_Logo" data-name="Global / Craft Logo" xmlns="http://www.w3.org/2000/svg" width="48" height="52" viewBox="0 0 48 52">
  <path id="Fill_1" data-name="Fill 1" d="M25.93,52A25.965,25.965,0,0,1,0,26,25.924,25.924,0,0,1,38.749,3.395,26.15,26.15,0,0,1,48,12.345l-.521.3L34.957,19.9a10.92,10.92,0,1,0,0,12.21L48,39.655a26.149,26.149,0,0,1-9.252,8.95A25.874,25.874,0,0,1,25.93,52ZM2.1,27.04A23.83,23.83,0,0,0,45.017,40.33L41.171,38.1A19.43,19.43,0,0,1,6.51,27.04Zm6.492,0A17.349,17.349,0,0,0,39.347,37.047L35.465,34.8a12.954,12.954,0,0,1-4.24,3.067,12.934,12.934,0,0,1-14.11-2.337,12.97,12.97,0,0,1-4.1-8.49ZM25.93,2.08A23.826,23.826,0,0,0,2.1,24.96H13.01A12.978,12.978,0,0,1,25.93,13a12.8,12.8,0,0,1,5.294,1.133,12.952,12.952,0,0,1,4.24,3.067l9.552-5.53A23.658,23.658,0,0,0,25.93,2.08Z" transform="translate(0)" fill="#f2f2f2"/>
</svg>
