<svg id="Global_Craft_Logo" data-name="Global / Craft Logo" xmlns="http://www.w3.org/2000/svg" width="40" height="43.333" viewBox="0 0 40 43.333">
  <path id="Fill_1" data-name="Fill 1" d="M21.609,43.333A21.637,21.637,0,0,1,0,21.667,21.6,21.6,0,0,1,32.291,2.829,21.791,21.791,0,0,1,40,10.287l-.434.251L29.131,16.579a9.1,9.1,0,1,0,0,10.175L40,33.046a21.79,21.79,0,0,1-7.71,7.458A21.562,21.562,0,0,1,21.609,43.333Zm-19.86-20.8A19.858,19.858,0,0,0,37.514,33.608l-3.205-1.856A16.191,16.191,0,0,1,5.425,22.533Zm5.41,0a14.457,14.457,0,0,0,25.631,8.34L29.554,29a10.8,10.8,0,0,1-3.534,2.556,10.778,10.778,0,0,1-11.758-1.948,10.809,10.809,0,0,1-3.42-7.075Zm14.45-20.8A19.855,19.855,0,0,0,1.749,20.8h9.093a10.815,10.815,0,0,1,10.767-9.967,10.671,10.671,0,0,1,4.411.944,10.794,10.794,0,0,1,3.534,2.556l7.96-4.609A19.715,19.715,0,0,0,21.609,1.733Z" transform="translate(0)" fill="#191919"/>
</svg>
