<?xml version="1.0" encoding="UTF-8"?>
<svg width="337px" height="55px" viewBox="0 0 337 55" version="1.1" xmlns="http://www.w3.org/2000/svg" xmlns:xlink="http://www.w3.org/1999/xlink">
    <title>Group 29</title>
    <g id="Pages" stroke="none" stroke-width="1" fill="none" fill-rule="evenodd">
        <g id="Home-04" transform="translate(-115.000000, -4248.000000)">
            <g id="footer" transform="translate(0.000000, 4178.000000)">
                <g id="Group-29" transform="translate(115.000000, 70.000000)">
                    <path d="M40,0 L21.6931621,18.1586184 L21.6931621,52 L17.324388,52 L17.324388,22.4918051 L5.36224286,34.3574635 L-1.98951966e-13,34.3574635 L17.324388,17.1989737 L17.324388,0.00140813605 L21.6931621,0.00140813605 L21.6931621,12.8714196 L34.6892967,0 L40,0 Z M27.0906822,19 L39,52 L34.8152099,52 L25,24.244208 L25,21.1601918 L27.0906822,19 Z M56,0 L56,52 L51,52 L51,0 L56,0 Z M88,0 L88,4.05543182 L79.7153514,4.05543182 L79.7153514,52 L75.1315024,52 L75.1315024,4.05543182 L67,4.05543182 L67,0 L88,0 Z M109.821316,0.100627027 C113.773974,0.100627027 117.118776,1.97508649 118.769684,5.11687027 C119.932628,7.32184399 120.341029,8.91541621 120.36282,13.7146489 L120.36375,14.1339514 L120.36375,15.4076 L115.643368,15.4076 C115.617748,12.5190865 115.530706,10.7665527 115.49594,10.1678026 L115.492026,10.1014919 L115.483145,10.0013568 C115.072816,6.61151892 112.766447,4.33370811 109.743513,4.33370811 C107.118786,4.33370811 105.115741,6.00476998 104.340786,8.82084872 L104.27175,9.08819459 L104.265,9.11665405 C103.991276,10.3457053 103.847045,13.044092 103.837423,17.1403432 L103.836908,17.584573 L103.836908,34.5966541 C103.836908,39.9677622 103.996066,42.2543568 104.465724,43.6291946 C105.306632,46.2207622 107.278697,47.7670595 109.743513,47.7670595 C112.823645,47.7670595 115.098395,45.3771676 115.409605,41.8186811 C115.535155,40.6314122 115.608443,38.045439 115.636475,35.8347631 L115.640526,35.4890865 L120.36375,35.4890865 L120.363083,37.352473 C120.347371,42.2618076 120.048457,44.076446 118.87449,46.3807793 L118.768618,46.5854649 L118.749789,46.6220054 C117.064066,50.0396 113.8095,51.9997892 109.821316,51.9997892 C106.717394,51.9997892 103.941345,50.7623506 102.153802,48.5935973 L101.966092,48.3576811 L101.947618,48.3344919 C99.8575926,45.7143206 99.2233074,43.6872507 99.2013208,35.6053411 L99.2007237,35.1584649 L99.2007237,17.0227622 C99.2007237,8.64679251 99.7980679,6.50846624 101.837006,3.90649978 L101.947618,3.76662703 L101.966092,3.74308649 C103.743474,1.42838378 106.606539,0.100627027 109.821316,0.100627027 Z M136.514688,0.100627027 L136.514688,24.0266 L148.249741,24.0266 L148.249741,0.100627027 L152.885925,0.100627027 L152.885925,51.9997892 L148.249741,51.9997892 L148.249741,28.0741676 L136.514688,28.0741676 L136.514688,51.9997892 L131.878504,51.9997892 L131.878504,0.100627027 L136.514688,0.100627027 Z" id="Combined-Shape" fill="#AAAAAA"></path>
                    <text id="EAT-INTENTIONALLY" font-family="Montserrat-Regular, Montserrat" font-size="16" font-weight="normal" letter-spacing="3" fill="#707070">
                        <tspan x="167" y="32">EAT</tspan>
                        <tspan x="167" y="51">INTENTIONALLY</tspan>
                    </text>
                </g>
            </g>
        </g>
    </g>
</svg>