<?xml version="1.0" encoding="UTF-8"?>
<svg width="48px" height="52px" viewBox="0 0 48 52" version="1.1" xmlns="http://www.w3.org/2000/svg" xmlns:xlink="http://www.w3.org/1999/xlink">
    <title>Global / Craft Logo</title>
    <g id="Website" stroke="none" stroke-width="1" fill="none" fill-rule="evenodd">
        <g id="13-Careers" transform="translate(-60.000000, -32.000000)">
            <g id="Global-/-Craft-Logo" transform="translate(60.000000, 32.000000)">
                <path d="M45.0169199,11.67036 L35.4640102,17.2003 C33.0952309,14.62058 29.7039998,13 25.930808,13 C19.1195626,13 13.5392528,18.26708 13.0102643,24.96 L2.09832098,24.96 C2.64338656,12.2512 13.1241005,2.08 25.930808,2.08 C33.7282019,2.08 40.661322,5.85234 45.0169199,11.67036 Z" id="Path" fill="#00FFB5"></path>
                <path d="M25.930808,49.92 C13.1241005,49.92 2.64338656,39.7488 2.09832098,27.04 L6.51070726,27.04 C7.04980876,37.32612 15.5379994,45.5 25.930808,45.5 C32.1090823,45.5 37.6092659,42.6075 41.1708624,38.10326 L45.0169199,40.32964 C40.661322,46.14766 33.7282019,49.92 25.930808,49.92 L25.930808,49.92 Z M45.0169199,11.67036 L35.4640102,17.2003 C33.0952309,14.62058 29.7039998,13 25.930808,13 C19.1195626,13 13.5392528,18.26708 13.0102643,24.96 L2.09832098,24.96 C2.64338656,12.2512 13.1241005,2.08 25.930808,2.08 C33.7282019,2.08 40.661322,5.85234 45.0169199,11.67036 Z M25.930808,39 C29.7039998,39 33.0952309,37.37942 35.4640102,34.7997 L39.3471487,37.0474 C36.1586965,40.9344 31.3303801,43.42 25.930808,43.42 C16.6994403,43.42 9.12971887,36.16288 8.59087668,27.04 L13.0102643,27.04 C13.5392528,33.73292 19.1195626,39 25.930808,39 L25.930808,39 Z M34.9570629,32.10454 C32.9974717,35.00796 29.6827366,36.92 25.930808,36.92 C19.9254921,36.92 15.0398686,32.02134 15.0398686,26 C15.0398686,19.97866 19.9254921,15.08 25.930808,15.08 C29.6827366,15.08 32.9974717,16.99204 34.9570629,19.89572 L47.479828,12.6464 L48,12.34532 C43.4307323,4.93688 35.2563044,0 25.930808,0 C11.609482,0 0,11.64046 0,26 C0,40.35954 11.609482,52 25.930808,52 C35.2563044,52 43.4307323,47.06312 48,39.65494 L34.9570629,32.10454 Z" id="Fill-1" fill="#FFFFFF"></path>
            </g>
        </g>
    </g>
</svg>